<svg aria-roledescription="er" role="graphics-document document" viewBox="0 0 707.1937866210938 854" style="max-width: 707.194px; background-color: white;" xmlns:xlink="http://www.w3.org/1999/xlink" xmlns="http://www.w3.org/2000/svg" width="100%" id="my-svg"><style>#my-svg{font-family:"trebuchet ms",verdana,arial,sans-serif;font-size:16px;fill:#333;}#my-svg .error-icon{fill:#552222;}#my-svg .error-text{fill:#552222;stroke:#552222;}#my-svg .edge-thickness-normal{stroke-width:1px;}#my-svg .edge-thickness-thick{stroke-width:3.5px;}#my-svg .edge-pattern-solid{stroke-dasharray:0;}#my-svg .edge-thickness-invisible{stroke-width:0;fill:none;}#my-svg .edge-pattern-dashed{stroke-dasharray:3;}#my-svg .edge-pattern-dotted{stroke-dasharray:2;}#my-svg .marker{fill:#333333;stroke:#333333;}#my-svg .marker.cross{stroke:#333333;}#my-svg svg{font-family:"trebuchet ms",verdana,arial,sans-serif;font-size:16px;}#my-svg p{margin:0;}#my-svg .entityBox{fill:#ECECFF;stroke:#9370DB;}#my-svg .attributeBoxOdd{fill:#ffffff;stroke:#9370DB;}#my-svg .attributeBoxEven{fill:#f2f2f2;stroke:#9370DB;}#my-svg .relationshipLabelBox{fill:hsl(80, 100%, 96.2745098039%);opacity:0.7;background-color:hsl(80, 100%, 96.2745098039%);}#my-svg .relationshipLabelBox rect{opacity:0.5;}#my-svg .relationshipLine{stroke:#333333;}#my-svg .entityTitleText{text-anchor:middle;font-size:18px;fill:#333;}#my-svg #MD_PARENT_START{fill:#f5f5f5!important;stroke:#333333!important;stroke-width:1;}#my-svg #MD_PARENT_END{fill:#f5f5f5!important;stroke:#333333!important;stroke-width:1;}#my-svg :root{--mermaid-font-family:"trebuchet ms",verdana,arial,sans-serif;}</style><g/><defs><marker orient="auto" markerHeight="240" markerWidth="190" refY="7" refX="0" id="MD_PARENT_START"><path d="M 18,7 L9,13 L1,7 L9,1 Z"/></marker></defs><defs><marker orient="auto" markerHeight="28" markerWidth="20" refY="7" refX="19" id="MD_PARENT_END"><path d="M 18,7 L9,13 L1,7 L9,1 Z"/></marker></defs><defs><marker orient="auto" markerHeight="18" markerWidth="18" refY="9" refX="0" id="ONLY_ONE_START"><path d="M9,0 L9,18 M15,0 L15,18" fill="none" stroke="gray"/></marker></defs><defs><marker orient="auto" markerHeight="18" markerWidth="18" refY="9" refX="18" id="ONLY_ONE_END"><path d="M3,0 L3,18 M9,0 L9,18" fill="none" stroke="gray"/></marker></defs><defs><marker orient="auto" markerHeight="18" markerWidth="30" refY="9" refX="0" id="ZERO_OR_ONE_START"><circle r="6" cy="9" cx="21" fill="white" stroke="gray"/><path d="M9,0 L9,18" fill="none" stroke="gray"/></marker></defs><defs><marker orient="auto" markerHeight="18" markerWidth="30" refY="9" refX="30" id="ZERO_OR_ONE_END"><circle r="6" cy="9" cx="9" fill="white" stroke="gray"/><path d="M21,0 L21,18" fill="none" stroke="gray"/></marker></defs><defs><marker orient="auto" markerHeight="36" markerWidth="45" refY="18" refX="18" id="ONE_OR_MORE_START"><path d="M0,18 Q 18,0 36,18 Q 18,36 0,18 M42,9 L42,27" fill="none" stroke="gray"/></marker></defs><defs><marker orient="auto" markerHeight="36" markerWidth="45" refY="18" refX="27" id="ONE_OR_MORE_END"><path d="M3,9 L3,27 M9,18 Q27,0 45,18 Q27,36 9,18" fill="none" stroke="gray"/></marker></defs><defs><marker orient="auto" markerHeight="36" markerWidth="57" refY="18" refX="18" id="ZERO_OR_MORE_START"><circle r="6" cy="18" cx="48" fill="white" stroke="gray"/><path d="M0,18 Q18,0 36,18 Q18,36 0,18" fill="none" stroke="gray"/></marker></defs><defs><marker orient="auto" markerHeight="36" markerWidth="57" refY="18" refX="39" id="ZERO_OR_MORE_END"><circle r="6" cy="18" cx="9" fill="white" stroke="gray"/><path d="M21,18 Q39,0 57,18 Q39,36 21,18" fill="none" stroke="gray"/></marker></defs><path style="stroke: gray; fill: none;" marker-start="url(#ONLY_ONE_START)" marker-end="url(#ZERO_OR_MORE_END)" d="M412.851,134.798L400.221,146.331C387.59,157.865,362.328,180.933,349.698,200.8C337.067,220.667,337.067,237.333,337.067,245.667L337.067,254" class="er relationshipLine"/><path style="stroke: gray; fill: none;" marker-start="url(#ONLY_ONE_START)" marker-end="url(#ONE_OR_MORE_END)" d="M260.317,371.062L231.192,385.885C202.067,400.708,143.818,430.354,114.694,455.344C85.569,480.333,85.569,500.667,85.569,510.833L85.569,521" class="er relationshipLine"/><path style="stroke: gray; fill: none;" marker-start="url(#ONLY_ONE_START)" marker-end="url(#ZERO_OR_MORE_END)" d="M85.569,633L85.569,643.167C85.569,653.333,85.569,673.667,85.569,692.167C85.569,710.667,85.569,727.333,85.569,735.667L85.569,744" class="er relationshipLine"/><path style="stroke: gray; fill: none;" marker-start="url(#ONLY_ONE_START)" marker-end="url(#ZERO_OR_MORE_END)" d="M337.067,410L337.067,418.333C337.067,426.667,337.067,443.333,337.067,460C337.067,476.667,337.067,493.333,337.067,501.667L337.067,510" class="er relationshipLine"/><path style="stroke: gray; fill: none;" marker-start="url(#ONLY_ONE_START)" marker-end="url(#ZERO_OR_MORE_END)" d="M413.817,368.653L445.696,383.877C477.576,399.102,541.335,429.551,573.215,453.109C605.095,476.667,605.095,493.333,605.095,501.667L605.095,510" class="er relationshipLine"/><path style="stroke: gray; fill: none;" marker-start="url(#ONLY_ONE_START)" marker-end="url(#ZERO_OR_MORE_END)" d="M517.539,134.798L530.17,146.331C542.8,157.865,568.062,180.933,580.693,202.633C593.323,224.333,593.323,244.667,593.323,254.833L593.323,265" class="er relationshipLine"/><g transform="translate(412.85129165649414,20 )" id="entity-USER-6e7e2962-0c6f-577d-a7fd-2ce3a0cfd2c8"><rect height="134" width="104.68759155273438" y="0" x="0" class="er entityBox"/><text style="dominant-baseline: middle; text-anchor: middle; font-size: 12px;" transform="translate(52.34379577636719,12)" y="0" x="0" id="text-entity-USER-6e7e2962-0c6f-577d-a7fd-2ce3a0cfd2c8" class="er entityLabel">USER</text><rect height="22" width="36.61909484863281" y="24" x="0" class="er attributeBoxOdd"/><text style="dominant-baseline: middle; font-size: 10.2px;" transform="translate(5,35)" y="0" x="0" id="text-entity-USER-6e7e2962-0c6f-577d-a7fd-2ce3a0cfd2c8-attr-1-type" class="er entityLabel">string</text><rect height="22" width="45.38081359863281" y="24" x="36.61909484863281" class="er attributeBoxOdd"/><text style="dominant-baseline: middle; font-size: 10.2px;" transform="translate(41.61909484863281,35)" y="0" x="0" id="text-entity-USER-6e7e2962-0c6f-577d-a7fd-2ce3a0cfd2c8-attr-1-name" class="er entityLabel">user_id</text><rect height="22" width="22.68768310546875" y="24" x="81.99990844726562" class="er attributeBoxOdd"/><text style="dominant-baseline: middle; font-size: 10.2px;" transform="translate(86.99990844726562,35)" y="0" x="0" id="text-entity-USER-6e7e2962-0c6f-577d-a7fd-2ce3a0cfd2c8-attr-1-key" class="er entityLabel">PK</text><rect height="22" width="36.61909484863281" y="46" x="0" class="er attributeBoxEven"/><text style="dominant-baseline: middle; font-size: 10.2px;" transform="translate(5,57)" y="0" x="0" id="text-entity-USER-6e7e2962-0c6f-577d-a7fd-2ce3a0cfd2c8-attr-2-type" class="er entityLabel">string</text><rect height="22" width="45.38081359863281" y="46" x="36.61909484863281" class="er attributeBoxEven"/><text style="dominant-baseline: middle; font-size: 10.2px;" transform="translate(41.61909484863281,57)" y="0" x="0" id="text-entity-USER-6e7e2962-0c6f-577d-a7fd-2ce3a0cfd2c8-attr-2-name" class="er entityLabel">name</text><rect height="22" width="22.68768310546875" y="46" x="81.99990844726562" class="er attributeBoxEven"/><text style="dominant-baseline: middle; font-size: 10.2px;" transform="translate(86.99990844726562,57)" y="0" x="0" id="text-entity-USER-6e7e2962-0c6f-577d-a7fd-2ce3a0cfd2c8-attr-2-key" class="er entityLabel"/><rect height="22" width="36.61909484863281" y="68" x="0" class="er attributeBoxOdd"/><text style="dominant-baseline: middle; font-size: 10.2px;" transform="translate(5,79)" y="0" x="0" id="text-entity-USER-6e7e2962-0c6f-577d-a7fd-2ce3a0cfd2c8-attr-3-type" class="er entityLabel">string</text><rect height="22" width="45.38081359863281" y="68" x="36.61909484863281" class="er attributeBoxOdd"/><text style="dominant-baseline: middle; font-size: 10.2px;" transform="translate(41.61909484863281,79)" y="0" x="0" id="text-entity-USER-6e7e2962-0c6f-577d-a7fd-2ce3a0cfd2c8-attr-3-name" class="er entityLabel">email</text><rect height="22" width="22.68768310546875" y="68" x="81.99990844726562" class="er attributeBoxOdd"/><text style="dominant-baseline: middle; font-size: 10.2px;" transform="translate(86.99990844726562,79)" y="0" x="0" id="text-entity-USER-6e7e2962-0c6f-577d-a7fd-2ce3a0cfd2c8-attr-3-key" class="er entityLabel"/><rect height="22" width="36.61909484863281" y="90" x="0" class="er attributeBoxEven"/><text style="dominant-baseline: middle; font-size: 10.2px;" transform="translate(5,101)" y="0" x="0" id="text-entity-USER-6e7e2962-0c6f-577d-a7fd-2ce3a0cfd2c8-attr-4-type" class="er entityLabel">string</text><rect height="22" width="45.38081359863281" y="90" x="36.61909484863281" class="er attributeBoxEven"/><text style="dominant-baseline: middle; font-size: 10.2px;" transform="translate(41.61909484863281,101)" y="0" x="0" id="text-entity-USER-6e7e2962-0c6f-577d-a7fd-2ce3a0cfd2c8-attr-4-name" class="er entityLabel">phone</text><rect height="22" width="22.68768310546875" y="90" x="81.99990844726562" class="er attributeBoxEven"/><text style="dominant-baseline: middle; font-size: 10.2px;" transform="translate(86.99990844726562,101)" y="0" x="0" id="text-entity-USER-6e7e2962-0c6f-577d-a7fd-2ce3a0cfd2c8-attr-4-key" class="er entityLabel"/><rect height="22" width="36.61909484863281" y="112" x="0" class="er attributeBoxOdd"/><text style="dominant-baseline: middle; font-size: 10.2px;" transform="translate(5,123)" y="0" x="0" id="text-entity-USER-6e7e2962-0c6f-577d-a7fd-2ce3a0cfd2c8-attr-5-type" class="er entityLabel">string</text><rect height="22" width="45.38081359863281" y="112" x="36.61909484863281" class="er attributeBoxOdd"/><text style="dominant-baseline: middle; font-size: 10.2px;" transform="translate(41.61909484863281,123)" y="0" x="0" id="text-entity-USER-6e7e2962-0c6f-577d-a7fd-2ce3a0cfd2c8-attr-5-name" class="er entityLabel">address</text><rect height="22" width="22.68768310546875" y="112" x="81.99990844726562" class="er attributeBoxOdd"/><text style="dominant-baseline: middle; font-size: 10.2px;" transform="translate(86.99990844726562,123)" y="0" x="0" id="text-entity-USER-6e7e2962-0c6f-577d-a7fd-2ce3a0cfd2c8-attr-5-key" class="er entityLabel"/></g><g transform="translate(260.31673431396484,254 )" id="entity-ORDER-36941e20-eb1d-50a3-81c5-00079b43c24a"><rect height="156" width="153.50001525878906" y="0" x="0" class="er entityBox"/><text style="dominant-baseline: middle; text-anchor: middle; font-size: 12px;" transform="translate(76.75000762939453,12)" y="0" x="0" id="text-entity-ORDER-36941e20-eb1d-50a3-81c5-00079b43c24a" class="er entityLabel">ORDER</text><rect height="22" width="58.98138427734375" y="24" x="0" class="er attributeBoxOdd"/><text style="dominant-baseline: middle; font-size: 10.2px;" transform="translate(5,35)" y="0" x="0" id="text-entity-ORDER-36941e20-eb1d-50a3-81c5-00079b43c24a-attr-1-type" class="er entityLabel">string</text><rect height="22" width="71.83094787597656" y="24" x="58.98138427734375" class="er attributeBoxOdd"/><text style="dominant-baseline: middle; font-size: 10.2px;" transform="translate(63.98138427734375,35)" y="0" x="0" id="text-entity-ORDER-36941e20-eb1d-50a3-81c5-00079b43c24a-attr-1-name" class="er entityLabel">order_id</text><rect height="22" width="22.68768310546875" y="24" x="130.8123321533203" class="er attributeBoxOdd"/><text style="dominant-baseline: middle; font-size: 10.2px;" transform="translate(135.8123321533203,35)" y="0" x="0" id="text-entity-ORDER-36941e20-eb1d-50a3-81c5-00079b43c24a-attr-1-key" class="er entityLabel">PK</text><rect height="22" width="58.98138427734375" y="46" x="0" class="er attributeBoxEven"/><text style="dominant-baseline: middle; font-size: 10.2px;" transform="translate(5,57)" y="0" x="0" id="text-entity-ORDER-36941e20-eb1d-50a3-81c5-00079b43c24a-attr-2-type" class="er entityLabel">string</text><rect height="22" width="71.83094787597656" y="46" x="58.98138427734375" class="er attributeBoxEven"/><text style="dominant-baseline: middle; font-size: 10.2px;" transform="translate(63.98138427734375,57)" y="0" x="0" id="text-entity-ORDER-36941e20-eb1d-50a3-81c5-00079b43c24a-attr-2-name" class="er entityLabel">user_id</text><rect height="22" width="22.68768310546875" y="46" x="130.8123321533203" class="er attributeBoxEven"/><text style="dominant-baseline: middle; font-size: 10.2px;" transform="translate(135.8123321533203,57)" y="0" x="0" id="text-entity-ORDER-36941e20-eb1d-50a3-81c5-00079b43c24a-attr-2-key" class="er entityLabel">FK</text><rect height="22" width="58.98138427734375" y="68" x="0" class="er attributeBoxOdd"/><text style="dominant-baseline: middle; font-size: 10.2px;" transform="translate(5,79)" y="0" x="0" id="text-entity-ORDER-36941e20-eb1d-50a3-81c5-00079b43c24a-attr-3-type" class="er entityLabel">string</text><rect height="22" width="71.83094787597656" y="68" x="58.98138427734375" class="er attributeBoxOdd"/><text style="dominant-baseline: middle; font-size: 10.2px;" transform="translate(63.98138427734375,79)" y="0" x="0" id="text-entity-ORDER-36941e20-eb1d-50a3-81c5-00079b43c24a-attr-3-name" class="er entityLabel">restaurant_id</text><rect height="22" width="22.68768310546875" y="68" x="130.8123321533203" class="er attributeBoxOdd"/><text style="dominant-baseline: middle; font-size: 10.2px;" transform="translate(135.8123321533203,79)" y="0" x="0" id="text-entity-ORDER-36941e20-eb1d-50a3-81c5-00079b43c24a-attr-3-key" class="er entityLabel">FK</text><rect height="22" width="58.98138427734375" y="90" x="0" class="er attributeBoxEven"/><text style="dominant-baseline: middle; font-size: 10.2px;" transform="translate(5,101)" y="0" x="0" id="text-entity-ORDER-36941e20-eb1d-50a3-81c5-00079b43c24a-attr-4-type" class="er entityLabel">string</text><rect height="22" width="71.83094787597656" y="90" x="58.98138427734375" class="er attributeBoxEven"/><text style="dominant-baseline: middle; font-size: 10.2px;" transform="translate(63.98138427734375,101)" y="0" x="0" id="text-entity-ORDER-36941e20-eb1d-50a3-81c5-00079b43c24a-attr-4-name" class="er entityLabel">status</text><rect height="22" width="22.68768310546875" y="90" x="130.8123321533203" class="er attributeBoxEven"/><text style="dominant-baseline: middle; font-size: 10.2px;" transform="translate(135.8123321533203,101)" y="0" x="0" id="text-entity-ORDER-36941e20-eb1d-50a3-81c5-00079b43c24a-attr-4-key" class="er entityLabel"/><rect height="22" width="58.98138427734375" y="112" x="0" class="er attributeBoxOdd"/><text style="dominant-baseline: middle; font-size: 10.2px;" transform="translate(5,123)" y="0" x="0" id="text-entity-ORDER-36941e20-eb1d-50a3-81c5-00079b43c24a-attr-5-type" class="er entityLabel">timestamp</text><rect height="22" width="71.83094787597656" y="112" x="58.98138427734375" class="er attributeBoxOdd"/><text style="dominant-baseline: middle; font-size: 10.2px;" transform="translate(63.98138427734375,123)" y="0" x="0" id="text-entity-ORDER-36941e20-eb1d-50a3-81c5-00079b43c24a-attr-5-name" class="er entityLabel">order_time</text><rect height="22" width="22.68768310546875" y="112" x="130.8123321533203" class="er attributeBoxOdd"/><text style="dominant-baseline: middle; font-size: 10.2px;" transform="translate(135.8123321533203,123)" y="0" x="0" id="text-entity-ORDER-36941e20-eb1d-50a3-81c5-00079b43c24a-attr-5-key" class="er entityLabel"/><rect height="22" width="58.98138427734375" y="134" x="0" class="er attributeBoxEven"/><text style="dominant-baseline: middle; font-size: 10.2px;" transform="translate(5,145)" y="0" x="0" id="text-entity-ORDER-36941e20-eb1d-50a3-81c5-00079b43c24a-attr-6-type" class="er entityLabel">float</text><rect height="22" width="71.83094787597656" y="134" x="58.98138427734375" class="er attributeBoxEven"/><text style="dominant-baseline: middle; font-size: 10.2px;" transform="translate(63.98138427734375,145)" y="0" x="0" id="text-entity-ORDER-36941e20-eb1d-50a3-81c5-00079b43c24a-attr-6-name" class="er entityLabel">total_price</text><rect height="22" width="22.68768310546875" y="134" x="130.8123321533203" class="er attributeBoxEven"/><text style="dominant-baseline: middle; font-size: 10.2px;" transform="translate(135.8123321533203,145)" y="0" x="0" id="text-entity-ORDER-36941e20-eb1d-50a3-81c5-00079b43c24a-attr-6-key" class="er entityLabel"/></g><g transform="translate(20,521 )" id="entity-RESTAURANT-8439aa6b-f9e9-5033-874d-9aa00d17f2b1"><rect height="112" width="131.13772583007812" y="0" x="0" class="er entityBox"/><text style="dominant-baseline: middle; text-anchor: middle; font-size: 12px;" transform="translate(65.56886291503906,12)" y="0" x="0" id="text-entity-RESTAURANT-8439aa6b-f9e9-5033-874d-9aa00d17f2b1" class="er entityLabel">RESTAURANT</text><rect height="22" width="36.61909484863281" y="24" x="0" class="er attributeBoxOdd"/><text style="dominant-baseline: middle; font-size: 10.2px;" transform="translate(5,35)" y="0" x="0" id="text-entity-RESTAURANT-8439aa6b-f9e9-5033-874d-9aa00d17f2b1-attr-1-type" class="er entityLabel">string</text><rect height="22" width="71.83094787597656" y="24" x="36.61909484863281" class="er attributeBoxOdd"/><text style="dominant-baseline: middle; font-size: 10.2px;" transform="translate(41.61909484863281,35)" y="0" x="0" id="text-entity-RESTAURANT-8439aa6b-f9e9-5033-874d-9aa00d17f2b1-attr-1-name" class="er entityLabel">restaurant_id</text><rect height="22" width="22.68768310546875" y="24" x="108.45004272460938" class="er attributeBoxOdd"/><text style="dominant-baseline: middle; font-size: 10.2px;" transform="translate(113.45004272460938,35)" y="0" x="0" id="text-entity-RESTAURANT-8439aa6b-f9e9-5033-874d-9aa00d17f2b1-attr-1-key" class="er entityLabel">PK</text><rect height="22" width="36.61909484863281" y="46" x="0" class="er attributeBoxEven"/><text style="dominant-baseline: middle; font-size: 10.2px;" transform="translate(5,57)" y="0" x="0" id="text-entity-RESTAURANT-8439aa6b-f9e9-5033-874d-9aa00d17f2b1-attr-2-type" class="er entityLabel">string</text><rect height="22" width="71.83094787597656" y="46" x="36.61909484863281" class="er attributeBoxEven"/><text style="dominant-baseline: middle; font-size: 10.2px;" transform="translate(41.61909484863281,57)" y="0" x="0" id="text-entity-RESTAURANT-8439aa6b-f9e9-5033-874d-9aa00d17f2b1-attr-2-name" class="er entityLabel">name</text><rect height="22" width="22.68768310546875" y="46" x="108.45004272460938" class="er attributeBoxEven"/><text style="dominant-baseline: middle; font-size: 10.2px;" transform="translate(113.45004272460938,57)" y="0" x="0" id="text-entity-RESTAURANT-8439aa6b-f9e9-5033-874d-9aa00d17f2b1-attr-2-key" class="er entityLabel"/><rect height="22" width="36.61909484863281" y="68" x="0" class="er attributeBoxOdd"/><text style="dominant-baseline: middle; font-size: 10.2px;" transform="translate(5,79)" y="0" x="0" id="text-entity-RESTAURANT-8439aa6b-f9e9-5033-874d-9aa00d17f2b1-attr-3-type" class="er entityLabel">string</text><rect height="22" width="71.83094787597656" y="68" x="36.61909484863281" class="er attributeBoxOdd"/><text style="dominant-baseline: middle; font-size: 10.2px;" transform="translate(41.61909484863281,79)" y="0" x="0" id="text-entity-RESTAURANT-8439aa6b-f9e9-5033-874d-9aa00d17f2b1-attr-3-name" class="er entityLabel">address</text><rect height="22" width="22.68768310546875" y="68" x="108.45004272460938" class="er attributeBoxOdd"/><text style="dominant-baseline: middle; font-size: 10.2px;" transform="translate(113.45004272460938,79)" y="0" x="0" id="text-entity-RESTAURANT-8439aa6b-f9e9-5033-874d-9aa00d17f2b1-attr-3-key" class="er entityLabel"/><rect height="22" width="36.61909484863281" y="90" x="0" class="er attributeBoxEven"/><text style="dominant-baseline: middle; font-size: 10.2px;" transform="translate(5,101)" y="0" x="0" id="text-entity-RESTAURANT-8439aa6b-f9e9-5033-874d-9aa00d17f2b1-attr-4-type" class="er entityLabel">string</text><rect height="22" width="71.83094787597656" y="90" x="36.61909484863281" class="er attributeBoxEven"/><text style="dominant-baseline: middle; font-size: 10.2px;" transform="translate(41.61909484863281,101)" y="0" x="0" id="text-entity-RESTAURANT-8439aa6b-f9e9-5033-874d-9aa00d17f2b1-attr-4-name" class="er entityLabel">menu_id</text><rect height="22" width="22.68768310546875" y="90" x="108.45004272460938" class="er attributeBoxEven"/><text style="dominant-baseline: middle; font-size: 10.2px;" transform="translate(113.45004272460938,101)" y="0" x="0" id="text-entity-RESTAURANT-8439aa6b-f9e9-5033-874d-9aa00d17f2b1-attr-4-key" class="er entityLabel">FK</text></g><g transform="translate(20,744 )" id="entity-MENU-2fb3ada7-0ffe-5213-993f-6e01ec70d633"><rect height="90" width="131.13772583007812" y="0" x="0" class="er entityBox"/><text style="dominant-baseline: middle; text-anchor: middle; font-size: 12px;" transform="translate(65.56886291503906,12)" y="0" x="0" id="text-entity-MENU-2fb3ada7-0ffe-5213-993f-6e01ec70d633" class="er entityLabel">MENU</text><rect height="22" width="36.61909484863281" y="24" x="0" class="er attributeBoxOdd"/><text style="dominant-baseline: middle; font-size: 10.2px;" transform="translate(5,35)" y="0" x="0" id="text-entity-MENU-2fb3ada7-0ffe-5213-993f-6e01ec70d633-attr-1-type" class="er entityLabel">string</text><rect height="22" width="71.83094787597656" y="24" x="36.61909484863281" class="er attributeBoxOdd"/><text style="dominant-baseline: middle; font-size: 10.2px;" transform="translate(41.61909484863281,35)" y="0" x="0" id="text-entity-MENU-2fb3ada7-0ffe-5213-993f-6e01ec70d633-attr-1-name" class="er entityLabel">menu_id</text><rect height="22" width="22.68768310546875" y="24" x="108.45004272460938" class="er attributeBoxOdd"/><text style="dominant-baseline: middle; font-size: 10.2px;" transform="translate(113.45004272460938,35)" y="0" x="0" id="text-entity-MENU-2fb3ada7-0ffe-5213-993f-6e01ec70d633-attr-1-key" class="er entityLabel">PK</text><rect height="22" width="36.61909484863281" y="46" x="0" class="er attributeBoxEven"/><text style="dominant-baseline: middle; font-size: 10.2px;" transform="translate(5,57)" y="0" x="0" id="text-entity-MENU-2fb3ada7-0ffe-5213-993f-6e01ec70d633-attr-2-type" class="er entityLabel">string</text><rect height="22" width="71.83094787597656" y="46" x="36.61909484863281" class="er attributeBoxEven"/><text style="dominant-baseline: middle; font-size: 10.2px;" transform="translate(41.61909484863281,57)" y="0" x="0" id="text-entity-MENU-2fb3ada7-0ffe-5213-993f-6e01ec70d633-attr-2-name" class="er entityLabel">restaurant_id</text><rect height="22" width="22.68768310546875" y="46" x="108.45004272460938" class="er attributeBoxEven"/><text style="dominant-baseline: middle; font-size: 10.2px;" transform="translate(113.45004272460938,57)" y="0" x="0" id="text-entity-MENU-2fb3ada7-0ffe-5213-993f-6e01ec70d633-attr-2-key" class="er entityLabel">FK</text><rect height="22" width="36.61909484863281" y="68" x="0" class="er attributeBoxOdd"/><text style="dominant-baseline: middle; font-size: 10.2px;" transform="translate(5,79)" y="0" x="0" id="text-entity-MENU-2fb3ada7-0ffe-5213-993f-6e01ec70d633-attr-3-type" class="er entityLabel">string</text><rect height="22" width="71.83094787597656" y="68" x="36.61909484863281" class="er attributeBoxOdd"/><text style="dominant-baseline: middle; font-size: 10.2px;" transform="translate(41.61909484863281,79)" y="0" x="0" id="text-entity-MENU-2fb3ada7-0ffe-5213-993f-6e01ec70d633-attr-3-name" class="er entityLabel">items</text><rect height="22" width="22.68768310546875" y="68" x="108.45004272460938" class="er attributeBoxOdd"/><text style="dominant-baseline: middle; font-size: 10.2px;" transform="translate(113.45004272460938,79)" y="0" x="0" id="text-entity-MENU-2fb3ada7-0ffe-5213-993f-6e01ec70d633-attr-3-key" class="er entityLabel"/></g><g transform="translate(251.13772583007812,510 )" id="entity-PAYMENT-9797eee8-7a01-5efe-aaa5-fb9a4f14957c"><rect height="134" width="171.8580322265625" y="0" x="0" class="er entityBox"/><text style="dominant-baseline: middle; text-anchor: middle; font-size: 12px;" transform="translate(85.92901611328125,12)" y="0" x="0" id="text-entity-PAYMENT-9797eee8-7a01-5efe-aaa5-fb9a4f14957c" class="er entityLabel">PAYMENT</text><rect height="22" width="58.98138427734375" y="24" x="0" class="er attributeBoxOdd"/><text style="dominant-baseline: middle; font-size: 10.2px;" transform="translate(5,35)" y="0" x="0" id="text-entity-PAYMENT-9797eee8-7a01-5efe-aaa5-fb9a4f14957c-attr-1-type" class="er entityLabel">string</text><rect height="22" width="90.18896484375" y="24" x="58.98138427734375" class="er attributeBoxOdd"/><text style="dominant-baseline: middle; font-size: 10.2px;" transform="translate(63.98138427734375,35)" y="0" x="0" id="text-entity-PAYMENT-9797eee8-7a01-5efe-aaa5-fb9a4f14957c-attr-1-name" class="er entityLabel">payment_id</text><rect height="22" width="22.68768310546875" y="24" x="149.17034912109375" class="er attributeBoxOdd"/><text style="dominant-baseline: middle; font-size: 10.2px;" transform="translate(154.17034912109375,35)" y="0" x="0" id="text-entity-PAYMENT-9797eee8-7a01-5efe-aaa5-fb9a4f14957c-attr-1-key" class="er entityLabel">PK</text><rect height="22" width="58.98138427734375" y="46" x="0" class="er attributeBoxEven"/><text style="dominant-baseline: middle; font-size: 10.2px;" transform="translate(5,57)" y="0" x="0" id="text-entity-PAYMENT-9797eee8-7a01-5efe-aaa5-fb9a4f14957c-attr-2-type" class="er entityLabel">string</text><rect height="22" width="90.18896484375" y="46" x="58.98138427734375" class="er attributeBoxEven"/><text style="dominant-baseline: middle; font-size: 10.2px;" transform="translate(63.98138427734375,57)" y="0" x="0" id="text-entity-PAYMENT-9797eee8-7a01-5efe-aaa5-fb9a4f14957c-attr-2-name" class="er entityLabel">order_id</text><rect height="22" width="22.68768310546875" y="46" x="149.17034912109375" class="er attributeBoxEven"/><text style="dominant-baseline: middle; font-size: 10.2px;" transform="translate(154.17034912109375,57)" y="0" x="0" id="text-entity-PAYMENT-9797eee8-7a01-5efe-aaa5-fb9a4f14957c-attr-2-key" class="er entityLabel">FK</text><rect height="22" width="58.98138427734375" y="68" x="0" class="er attributeBoxOdd"/><text style="dominant-baseline: middle; font-size: 10.2px;" transform="translate(5,79)" y="0" x="0" id="text-entity-PAYMENT-9797eee8-7a01-5efe-aaa5-fb9a4f14957c-attr-3-type" class="er entityLabel">string</text><rect height="22" width="90.18896484375" y="68" x="58.98138427734375" class="er attributeBoxOdd"/><text style="dominant-baseline: middle; font-size: 10.2px;" transform="translate(63.98138427734375,79)" y="0" x="0" id="text-entity-PAYMENT-9797eee8-7a01-5efe-aaa5-fb9a4f14957c-attr-3-name" class="er entityLabel">status</text><rect height="22" width="22.68768310546875" y="68" x="149.17034912109375" class="er attributeBoxOdd"/><text style="dominant-baseline: middle; font-size: 10.2px;" transform="translate(154.17034912109375,79)" y="0" x="0" id="text-entity-PAYMENT-9797eee8-7a01-5efe-aaa5-fb9a4f14957c-attr-3-key" class="er entityLabel"/><rect height="22" width="58.98138427734375" y="90" x="0" class="er attributeBoxEven"/><text style="dominant-baseline: middle; font-size: 10.2px;" transform="translate(5,101)" y="0" x="0" id="text-entity-PAYMENT-9797eee8-7a01-5efe-aaa5-fb9a4f14957c-attr-4-type" class="er entityLabel">string</text><rect height="22" width="90.18896484375" y="90" x="58.98138427734375" class="er attributeBoxEven"/><text style="dominant-baseline: middle; font-size: 10.2px;" transform="translate(63.98138427734375,101)" y="0" x="0" id="text-entity-PAYMENT-9797eee8-7a01-5efe-aaa5-fb9a4f14957c-attr-4-name" class="er entityLabel">payment_method</text><rect height="22" width="22.68768310546875" y="90" x="149.17034912109375" class="er attributeBoxEven"/><text style="dominant-baseline: middle; font-size: 10.2px;" transform="translate(154.17034912109375,101)" y="0" x="0" id="text-entity-PAYMENT-9797eee8-7a01-5efe-aaa5-fb9a4f14957c-attr-4-key" class="er entityLabel"/><rect height="22" width="58.98138427734375" y="112" x="0" class="er attributeBoxOdd"/><text style="dominant-baseline: middle; font-size: 10.2px;" transform="translate(5,123)" y="0" x="0" id="text-entity-PAYMENT-9797eee8-7a01-5efe-aaa5-fb9a4f14957c-attr-5-type" class="er entityLabel">timestamp</text><rect height="22" width="90.18896484375" y="112" x="58.98138427734375" class="er attributeBoxOdd"/><text style="dominant-baseline: middle; font-size: 10.2px;" transform="translate(63.98138427734375,123)" y="0" x="0" id="text-entity-PAYMENT-9797eee8-7a01-5efe-aaa5-fb9a4f14957c-attr-5-name" class="er entityLabel">payment_time</text><rect height="22" width="22.68768310546875" y="112" x="149.17034912109375" class="er attributeBoxOdd"/><text style="dominant-baseline: middle; font-size: 10.2px;" transform="translate(154.17034912109375,123)" y="0" x="0" id="text-entity-PAYMENT-9797eee8-7a01-5efe-aaa5-fb9a4f14957c-attr-5-key" class="er entityLabel"/></g><g transform="translate(522.9957580566406,510 )" id="entity-DELIVERY-008527dc-fafa-5bbf-b4b7-2f227996bdd9"><rect height="134" width="164.19805908203125" y="0" x="0" class="er entityBox"/><text style="dominant-baseline: middle; text-anchor: middle; font-size: 12px;" transform="translate(82.09902954101562,12)" y="0" x="0" id="text-entity-DELIVERY-008527dc-fafa-5bbf-b4b7-2f227996bdd9" class="er entityLabel">DELIVERY</text><rect height="22" width="58.98138427734375" y="24" x="0" class="er attributeBoxOdd"/><text style="dominant-baseline: middle; font-size: 10.2px;" transform="translate(5,35)" y="0" x="0" id="text-entity-DELIVERY-008527dc-fafa-5bbf-b4b7-2f227996bdd9-attr-1-type" class="er entityLabel">string</text><rect height="22" width="82.52899169921875" y="24" x="58.98138427734375" class="er attributeBoxOdd"/><text style="dominant-baseline: middle; font-size: 10.2px;" transform="translate(63.98138427734375,35)" y="0" x="0" id="text-entity-DELIVERY-008527dc-fafa-5bbf-b4b7-2f227996bdd9-attr-1-name" class="er entityLabel">delivery_id</text><rect height="22" width="22.68768310546875" y="24" x="141.5103759765625" class="er attributeBoxOdd"/><text style="dominant-baseline: middle; font-size: 10.2px;" transform="translate(146.5103759765625,35)" y="0" x="0" id="text-entity-DELIVERY-008527dc-fafa-5bbf-b4b7-2f227996bdd9-attr-1-key" class="er entityLabel">PK</text><rect height="22" width="58.98138427734375" y="46" x="0" class="er attributeBoxEven"/><text style="dominant-baseline: middle; font-size: 10.2px;" transform="translate(5,57)" y="0" x="0" id="text-entity-DELIVERY-008527dc-fafa-5bbf-b4b7-2f227996bdd9-attr-2-type" class="er entityLabel">string</text><rect height="22" width="82.52899169921875" y="46" x="58.98138427734375" class="er attributeBoxEven"/><text style="dominant-baseline: middle; font-size: 10.2px;" transform="translate(63.98138427734375,57)" y="0" x="0" id="text-entity-DELIVERY-008527dc-fafa-5bbf-b4b7-2f227996bdd9-attr-2-name" class="er entityLabel">order_id</text><rect height="22" width="22.68768310546875" y="46" x="141.5103759765625" class="er attributeBoxEven"/><text style="dominant-baseline: middle; font-size: 10.2px;" transform="translate(146.5103759765625,57)" y="0" x="0" id="text-entity-DELIVERY-008527dc-fafa-5bbf-b4b7-2f227996bdd9-attr-2-key" class="er entityLabel">FK</text><rect height="22" width="58.98138427734375" y="68" x="0" class="er attributeBoxOdd"/><text style="dominant-baseline: middle; font-size: 10.2px;" transform="translate(5,79)" y="0" x="0" id="text-entity-DELIVERY-008527dc-fafa-5bbf-b4b7-2f227996bdd9-attr-3-type" class="er entityLabel">string</text><rect height="22" width="82.52899169921875" y="68" x="58.98138427734375" class="er attributeBoxOdd"/><text style="dominant-baseline: middle; font-size: 10.2px;" transform="translate(63.98138427734375,79)" y="0" x="0" id="text-entity-DELIVERY-008527dc-fafa-5bbf-b4b7-2f227996bdd9-attr-3-name" class="er entityLabel">rider_id</text><rect height="22" width="22.68768310546875" y="68" x="141.5103759765625" class="er attributeBoxOdd"/><text style="dominant-baseline: middle; font-size: 10.2px;" transform="translate(146.5103759765625,79)" y="0" x="0" id="text-entity-DELIVERY-008527dc-fafa-5bbf-b4b7-2f227996bdd9-attr-3-key" class="er entityLabel">FK</text><rect height="22" width="58.98138427734375" y="90" x="0" class="er attributeBoxEven"/><text style="dominant-baseline: middle; font-size: 10.2px;" transform="translate(5,101)" y="0" x="0" id="text-entity-DELIVERY-008527dc-fafa-5bbf-b4b7-2f227996bdd9-attr-4-type" class="er entityLabel">string</text><rect height="22" width="82.52899169921875" y="90" x="58.98138427734375" class="er attributeBoxEven"/><text style="dominant-baseline: middle; font-size: 10.2px;" transform="translate(63.98138427734375,101)" y="0" x="0" id="text-entity-DELIVERY-008527dc-fafa-5bbf-b4b7-2f227996bdd9-attr-4-name" class="er entityLabel">status</text><rect height="22" width="22.68768310546875" y="90" x="141.5103759765625" class="er attributeBoxEven"/><text style="dominant-baseline: middle; font-size: 10.2px;" transform="translate(146.5103759765625,101)" y="0" x="0" id="text-entity-DELIVERY-008527dc-fafa-5bbf-b4b7-2f227996bdd9-attr-4-key" class="er entityLabel"/><rect height="22" width="58.98138427734375" y="112" x="0" class="er attributeBoxOdd"/><text style="dominant-baseline: middle; font-size: 10.2px;" transform="translate(5,123)" y="0" x="0" id="text-entity-DELIVERY-008527dc-fafa-5bbf-b4b7-2f227996bdd9-attr-5-type" class="er entityLabel">timestamp</text><rect height="22" width="82.52899169921875" y="112" x="58.98138427734375" class="er attributeBoxOdd"/><text style="dominant-baseline: middle; font-size: 10.2px;" transform="translate(63.98138427734375,123)" y="0" x="0" id="text-entity-DELIVERY-008527dc-fafa-5bbf-b4b7-2f227996bdd9-attr-5-name" class="er entityLabel">estimated_time</text><rect height="22" width="22.68768310546875" y="112" x="141.5103759765625" class="er attributeBoxOdd"/><text style="dominant-baseline: middle; font-size: 10.2px;" transform="translate(146.5103759765625,123)" y="0" x="0" id="text-entity-DELIVERY-008527dc-fafa-5bbf-b4b7-2f227996bdd9-attr-5-key" class="er entityLabel"/></g><g transform="translate(513.8167495727539,265 )" id="entity-NOTIFICATION-5f6efb57-77a0-5636-b1c2-92f816a1abf8"><rect height="134" width="159.01336669921875" y="0" x="0" class="er entityBox"/><text style="dominant-baseline: middle; text-anchor: middle; font-size: 12px;" transform="translate(79.50668334960938,12)" y="0" x="0" id="text-entity-NOTIFICATION-5f6efb57-77a0-5636-b1c2-92f816a1abf8" class="er entityLabel">NOTIFICATION</text><rect height="22" width="58.98138427734375" y="24" x="0" class="er attributeBoxOdd"/><text style="dominant-baseline: middle; font-size: 10.2px;" transform="translate(5,35)" y="0" x="0" id="text-entity-NOTIFICATION-5f6efb57-77a0-5636-b1c2-92f816a1abf8-attr-1-type" class="er entityLabel">string</text><rect height="22" width="77.34429931640625" y="24" x="58.98138427734375" class="er attributeBoxOdd"/><text style="dominant-baseline: middle; font-size: 10.2px;" transform="translate(63.98138427734375,35)" y="0" x="0" id="text-entity-NOTIFICATION-5f6efb57-77a0-5636-b1c2-92f816a1abf8-attr-1-name" class="er entityLabel">notification_id</text><rect height="22" width="22.68768310546875" y="24" x="136.32568359375" class="er attributeBoxOdd"/><text style="dominant-baseline: middle; font-size: 10.2px;" transform="translate(141.32568359375,35)" y="0" x="0" id="text-entity-NOTIFICATION-5f6efb57-77a0-5636-b1c2-92f816a1abf8-attr-1-key" class="er entityLabel">PK</text><rect height="22" width="58.98138427734375" y="46" x="0" class="er attributeBoxEven"/><text style="dominant-baseline: middle; font-size: 10.2px;" transform="translate(5,57)" y="0" x="0" id="text-entity-NOTIFICATION-5f6efb57-77a0-5636-b1c2-92f816a1abf8-attr-2-type" class="er entityLabel">string</text><rect height="22" width="77.34429931640625" y="46" x="58.98138427734375" class="er attributeBoxEven"/><text style="dominant-baseline: middle; font-size: 10.2px;" transform="translate(63.98138427734375,57)" y="0" x="0" id="text-entity-NOTIFICATION-5f6efb57-77a0-5636-b1c2-92f816a1abf8-attr-2-name" class="er entityLabel">user_id</text><rect height="22" width="22.68768310546875" y="46" x="136.32568359375" class="er attributeBoxEven"/><text style="dominant-baseline: middle; font-size: 10.2px;" transform="translate(141.32568359375,57)" y="0" x="0" id="text-entity-NOTIFICATION-5f6efb57-77a0-5636-b1c2-92f816a1abf8-attr-2-key" class="er entityLabel">FK</text><rect height="22" width="58.98138427734375" y="68" x="0" class="er attributeBoxOdd"/><text style="dominant-baseline: middle; font-size: 10.2px;" transform="translate(5,79)" y="0" x="0" id="text-entity-NOTIFICATION-5f6efb57-77a0-5636-b1c2-92f816a1abf8-attr-3-type" class="er entityLabel">string</text><rect height="22" width="77.34429931640625" y="68" x="58.98138427734375" class="er attributeBoxOdd"/><text style="dominant-baseline: middle; font-size: 10.2px;" transform="translate(63.98138427734375,79)" y="0" x="0" id="text-entity-NOTIFICATION-5f6efb57-77a0-5636-b1c2-92f816a1abf8-attr-3-name" class="er entityLabel">type</text><rect height="22" width="22.68768310546875" y="68" x="136.32568359375" class="er attributeBoxOdd"/><text style="dominant-baseline: middle; font-size: 10.2px;" transform="translate(141.32568359375,79)" y="0" x="0" id="text-entity-NOTIFICATION-5f6efb57-77a0-5636-b1c2-92f816a1abf8-attr-3-key" class="er entityLabel"/><rect height="22" width="58.98138427734375" y="90" x="0" class="er attributeBoxEven"/><text style="dominant-baseline: middle; font-size: 10.2px;" transform="translate(5,101)" y="0" x="0" id="text-entity-NOTIFICATION-5f6efb57-77a0-5636-b1c2-92f816a1abf8-attr-4-type" class="er entityLabel">string</text><rect height="22" width="77.34429931640625" y="90" x="58.98138427734375" class="er attributeBoxEven"/><text style="dominant-baseline: middle; font-size: 10.2px;" transform="translate(63.98138427734375,101)" y="0" x="0" id="text-entity-NOTIFICATION-5f6efb57-77a0-5636-b1c2-92f816a1abf8-attr-4-name" class="er entityLabel">content</text><rect height="22" width="22.68768310546875" y="90" x="136.32568359375" class="er attributeBoxEven"/><text style="dominant-baseline: middle; font-size: 10.2px;" transform="translate(141.32568359375,101)" y="0" x="0" id="text-entity-NOTIFICATION-5f6efb57-77a0-5636-b1c2-92f816a1abf8-attr-4-key" class="er entityLabel"/><rect height="22" width="58.98138427734375" y="112" x="0" class="er attributeBoxOdd"/><text style="dominant-baseline: middle; font-size: 10.2px;" transform="translate(5,123)" y="0" x="0" id="text-entity-NOTIFICATION-5f6efb57-77a0-5636-b1c2-92f816a1abf8-attr-5-type" class="er entityLabel">timestamp</text><rect height="22" width="77.34429931640625" y="112" x="58.98138427734375" class="er attributeBoxOdd"/><text style="dominant-baseline: middle; font-size: 10.2px;" transform="translate(63.98138427734375,123)" y="0" x="0" id="text-entity-NOTIFICATION-5f6efb57-77a0-5636-b1c2-92f816a1abf8-attr-5-name" class="er entityLabel">sent_time</text><rect height="22" width="22.68768310546875" y="112" x="136.32568359375" class="er attributeBoxOdd"/><text style="dominant-baseline: middle; font-size: 10.2px;" transform="translate(141.32568359375,123)" y="0" x="0" id="text-entity-NOTIFICATION-5f6efb57-77a0-5636-b1c2-92f816a1abf8-attr-5-key" class="er entityLabel"/></g><rect height="14" width="34.015625" y="179.39698791503906" x="343.4076843261719" class="er relationshipLabelBox"/><text style="text-anchor: middle; dominant-baseline: middle; font-size: 12px;" y="186.39698791503906" x="360.4154968261719" id="rel1" class="er relationshipLabel">places</text><rect height="14" width="25.5390625" y="421.5750732421875" x="140.14404296875" class="er relationshipLabelBox"/><text style="text-anchor: middle; dominant-baseline: middle; font-size: 12px;" y="428.5750732421875" x="152.91357421875" id="rel2" class="er relationshipLabel">from</text><rect height="14" width="17.861328125" y="681.5" x="76.63833618164062" class="er relationshipLabelBox"/><text style="text-anchor: middle; dominant-baseline: middle; font-size: 12px;" y="688.5" x="85.56900024414062" id="rel3" class="er relationshipLabel">has</text><rect height="14" width="17.861328125" y="453" x="328.1363220214844" class="er relationshipLabelBox"/><text style="text-anchor: middle; dominant-baseline: middle; font-size: 12px;" y="460" x="337.0669860839844" id="rel4" class="er relationshipLabel">has</text><rect height="14" width="63.302734375" y="416.95611572265625" x="493.94427490234375" class="er relationshipLabelBox"/><text style="text-anchor: middle; dominant-baseline: middle; font-size: 12px;" y="423.95611572265625" x="525.5956420898438" id="rel5" class="er relationshipLabel">assigned_to</text><rect height="14" width="44.5390625" y="183.82928466796875" x="550.501220703125" class="er relationshipLabelBox"/><text style="text-anchor: middle; dominant-baseline: middle; font-size: 12px;" y="190.82928466796875" x="572.770751953125" id="rel6" class="er relationshipLabel">receives</text></svg>