<svg aria-roledescription="er" role="graphics-document document" viewBox="0 0 662.0260009765625 452" style="max-width: 662.026px; background-color: white;" xmlns:xlink="http://www.w3.org/1999/xlink" xmlns="http://www.w3.org/2000/svg" width="100%" id="my-svg"><style>#my-svg{font-family:"trebuchet ms",verdana,arial,sans-serif;font-size:16px;fill:#333;}#my-svg .error-icon{fill:#552222;}#my-svg .error-text{fill:#552222;stroke:#552222;}#my-svg .edge-thickness-normal{stroke-width:1px;}#my-svg .edge-thickness-thick{stroke-width:3.5px;}#my-svg .edge-pattern-solid{stroke-dasharray:0;}#my-svg .edge-thickness-invisible{stroke-width:0;fill:none;}#my-svg .edge-pattern-dashed{stroke-dasharray:3;}#my-svg .edge-pattern-dotted{stroke-dasharray:2;}#my-svg .marker{fill:#333333;stroke:#333333;}#my-svg .marker.cross{stroke:#333333;}#my-svg svg{font-family:"trebuchet ms",verdana,arial,sans-serif;font-size:16px;}#my-svg p{margin:0;}#my-svg .entityBox{fill:#ECECFF;stroke:#9370DB;}#my-svg .attributeBoxOdd{fill:#ffffff;stroke:#9370DB;}#my-svg .attributeBoxEven{fill:#f2f2f2;stroke:#9370DB;}#my-svg .relationshipLabelBox{fill:hsl(80, 100%, 96.2745098039%);opacity:0.7;background-color:hsl(80, 100%, 96.2745098039%);}#my-svg .relationshipLabelBox rect{opacity:0.5;}#my-svg .relationshipLine{stroke:#333333;}#my-svg .entityTitleText{text-anchor:middle;font-size:18px;fill:#333;}#my-svg #MD_PARENT_START{fill:#f5f5f5!important;stroke:#333333!important;stroke-width:1;}#my-svg #MD_PARENT_END{fill:#f5f5f5!important;stroke:#333333!important;stroke-width:1;}#my-svg :root{--mermaid-font-family:"trebuchet ms",verdana,arial,sans-serif;}</style><g/><defs><marker orient="auto" markerHeight="240" markerWidth="190" refY="7" refX="0" id="MD_PARENT_START"><path d="M 18,7 L9,13 L1,7 L9,1 Z"/></marker></defs><defs><marker orient="auto" markerHeight="28" markerWidth="20" refY="7" refX="19" id="MD_PARENT_END"><path d="M 18,7 L9,13 L1,7 L9,1 Z"/></marker></defs><defs><marker orient="auto" markerHeight="18" markerWidth="18" refY="9" refX="0" id="ONLY_ONE_START"><path d="M9,0 L9,18 M15,0 L15,18" fill="none" stroke="gray"/></marker></defs><defs><marker orient="auto" markerHeight="18" markerWidth="18" refY="9" refX="18" id="ONLY_ONE_END"><path d="M3,0 L3,18 M9,0 L9,18" fill="none" stroke="gray"/></marker></defs><defs><marker orient="auto" markerHeight="18" markerWidth="30" refY="9" refX="0" id="ZERO_OR_ONE_START"><circle r="6" cy="9" cx="21" fill="white" stroke="gray"/><path d="M9,0 L9,18" fill="none" stroke="gray"/></marker></defs><defs><marker orient="auto" markerHeight="18" markerWidth="30" refY="9" refX="30" id="ZERO_OR_ONE_END"><circle r="6" cy="9" cx="9" fill="white" stroke="gray"/><path d="M21,0 L21,18" fill="none" stroke="gray"/></marker></defs><defs><marker orient="auto" markerHeight="36" markerWidth="45" refY="18" refX="18" id="ONE_OR_MORE_START"><path d="M0,18 Q 18,0 36,18 Q 18,36 0,18 M42,9 L42,27" fill="none" stroke="gray"/></marker></defs><defs><marker orient="auto" markerHeight="36" markerWidth="45" refY="18" refX="27" id="ONE_OR_MORE_END"><path d="M3,9 L3,27 M9,18 Q27,0 45,18 Q27,36 9,18" fill="none" stroke="gray"/></marker></defs><defs><marker orient="auto" markerHeight="36" markerWidth="57" refY="18" refX="18" id="ZERO_OR_MORE_START"><circle r="6" cy="18" cx="48" fill="white" stroke="gray"/><path d="M0,18 Q18,0 36,18 Q18,36 0,18" fill="none" stroke="gray"/></marker></defs><defs><marker orient="auto" markerHeight="36" markerWidth="57" refY="18" refX="39" id="ZERO_OR_MORE_END"><circle r="6" cy="18" cx="9" fill="white" stroke="gray"/><path d="M21,18 Q39,0 57,18 Q39,36 21,18" fill="none" stroke="gray"/></marker></defs><path style="stroke: gray; fill: none;" marker-start="url(#ONLY_ONE_START)" marker-end="url(#ONLY_ONE_END)" d="M261.2,136.599L232.735,151.499C204.27,166.4,147.34,196.2,118.875,223.1C90.41,250,90.41,274,90.41,286L90.41,298" class="er relationshipLine"/><path style="stroke: gray; fill: none;" marker-start="url(#ONLY_ONE_START)" marker-end="url(#ONLY_ONE_END)" d="M334.94,176L334.94,184.333C334.94,192.667,334.94,209.333,334.94,226C334.94,242.667,334.94,259.333,334.94,267.667L334.94,276" class="er relationshipLine"/><path style="stroke: gray; fill: none;" marker-start="url(#ONLY_ONE_START)" marker-end="url(#ONLY_ONE_END)" d="M408.68,137.229L436.491,152.024C464.301,166.82,519.922,196.41,547.733,221.372C575.543,246.333,575.543,266.667,575.543,276.833L575.543,287" class="er relationshipLine"/><g transform="translate(261.20023345947266,20 )" id="entity-ORDERDB-0d7e96e6-a401-51dc-a85d-33cf648b98d2"><rect height="156" width="147.47972106933594" y="0" x="0" class="er entityBox"/><text style="dominant-baseline: middle; text-anchor: middle; font-size: 12px;" transform="translate(73.73986053466797,12)" y="0" x="0" id="text-entity-ORDERDB-0d7e96e6-a401-51dc-a85d-33cf648b98d2" class="er entityLabel">ORDER_DB</text><rect height="22" width="52.06849670410156" y="24" x="0" class="er attributeBoxOdd"/><text style="dominant-baseline: middle; font-size: 10.2px;" transform="translate(5,35)" y="0" x="0" id="text-entity-ORDERDB-0d7e96e6-a401-51dc-a85d-33cf648b98d2-attr-1-type" class="er entityLabel">int</text><rect height="22" width="72.72354125976562" y="24" x="52.06849670410156" class="er attributeBoxOdd"/><text style="dominant-baseline: middle; font-size: 10.2px;" transform="translate(57.06849670410156,35)" y="0" x="0" id="text-entity-ORDERDB-0d7e96e6-a401-51dc-a85d-33cf648b98d2-attr-1-name" class="er entityLabel">order_id</text><rect height="22" width="22.68768310546875" y="24" x="124.79203796386719" class="er attributeBoxOdd"/><text style="dominant-baseline: middle; font-size: 10.2px;" transform="translate(129.7920379638672,35)" y="0" x="0" id="text-entity-ORDERDB-0d7e96e6-a401-51dc-a85d-33cf648b98d2-attr-1-key" class="er entityLabel">PK</text><rect height="22" width="52.06849670410156" y="46" x="0" class="er attributeBoxEven"/><text style="dominant-baseline: middle; font-size: 10.2px;" transform="translate(5,57)" y="0" x="0" id="text-entity-ORDERDB-0d7e96e6-a401-51dc-a85d-33cf648b98d2-attr-2-type" class="er entityLabel">int</text><rect height="22" width="72.72354125976562" y="46" x="52.06849670410156" class="er attributeBoxEven"/><text style="dominant-baseline: middle; font-size: 10.2px;" transform="translate(57.06849670410156,57)" y="0" x="0" id="text-entity-ORDERDB-0d7e96e6-a401-51dc-a85d-33cf648b98d2-attr-2-name" class="er entityLabel">user_id</text><rect height="22" width="22.68768310546875" y="46" x="124.79203796386719" class="er attributeBoxEven"/><text style="dominant-baseline: middle; font-size: 10.2px;" transform="translate(129.7920379638672,57)" y="0" x="0" id="text-entity-ORDERDB-0d7e96e6-a401-51dc-a85d-33cf648b98d2-attr-2-key" class="er entityLabel">FK</text><rect height="22" width="52.06849670410156" y="68" x="0" class="er attributeBoxOdd"/><text style="dominant-baseline: middle; font-size: 10.2px;" transform="translate(5,79)" y="0" x="0" id="text-entity-ORDERDB-0d7e96e6-a401-51dc-a85d-33cf648b98d2-attr-3-type" class="er entityLabel">int</text><rect height="22" width="72.72354125976562" y="68" x="52.06849670410156" class="er attributeBoxOdd"/><text style="dominant-baseline: middle; font-size: 10.2px;" transform="translate(57.06849670410156,79)" y="0" x="0" id="text-entity-ORDERDB-0d7e96e6-a401-51dc-a85d-33cf648b98d2-attr-3-name" class="er entityLabel">restaurant_id</text><rect height="22" width="22.68768310546875" y="68" x="124.79203796386719" class="er attributeBoxOdd"/><text style="dominant-baseline: middle; font-size: 10.2px;" transform="translate(129.7920379638672,79)" y="0" x="0" id="text-entity-ORDERDB-0d7e96e6-a401-51dc-a85d-33cf648b98d2-attr-3-key" class="er entityLabel">FK</text><rect height="22" width="52.06849670410156" y="90" x="0" class="er attributeBoxEven"/><text style="dominant-baseline: middle; font-size: 10.2px;" transform="translate(5,101)" y="0" x="0" id="text-entity-ORDERDB-0d7e96e6-a401-51dc-a85d-33cf648b98d2-attr-4-type" class="er entityLabel">datetime</text><rect height="22" width="72.72354125976562" y="90" x="52.06849670410156" class="er attributeBoxEven"/><text style="dominant-baseline: middle; font-size: 10.2px;" transform="translate(57.06849670410156,101)" y="0" x="0" id="text-entity-ORDERDB-0d7e96e6-a401-51dc-a85d-33cf648b98d2-attr-4-name" class="er entityLabel">created_at</text><rect height="22" width="22.68768310546875" y="90" x="124.79203796386719" class="er attributeBoxEven"/><text style="dominant-baseline: middle; font-size: 10.2px;" transform="translate(129.7920379638672,101)" y="0" x="0" id="text-entity-ORDERDB-0d7e96e6-a401-51dc-a85d-33cf648b98d2-attr-4-key" class="er entityLabel"/><rect height="22" width="52.06849670410156" y="112" x="0" class="er attributeBoxOdd"/><text style="dominant-baseline: middle; font-size: 10.2px;" transform="translate(5,123)" y="0" x="0" id="text-entity-ORDERDB-0d7e96e6-a401-51dc-a85d-33cf648b98d2-attr-5-type" class="er entityLabel">varchar</text><rect height="22" width="72.72354125976562" y="112" x="52.06849670410156" class="er attributeBoxOdd"/><text style="dominant-baseline: middle; font-size: 10.2px;" transform="translate(57.06849670410156,123)" y="0" x="0" id="text-entity-ORDERDB-0d7e96e6-a401-51dc-a85d-33cf648b98d2-attr-5-name" class="er entityLabel">status</text><rect height="22" width="22.68768310546875" y="112" x="124.79203796386719" class="er attributeBoxOdd"/><text style="dominant-baseline: middle; font-size: 10.2px;" transform="translate(129.7920379638672,123)" y="0" x="0" id="text-entity-ORDERDB-0d7e96e6-a401-51dc-a85d-33cf648b98d2-attr-5-key" class="er entityLabel"/><rect height="22" width="52.06849670410156" y="134" x="0" class="er attributeBoxEven"/><text style="dominant-baseline: middle; font-size: 10.2px;" transform="translate(5,145)" y="0" x="0" id="text-entity-ORDERDB-0d7e96e6-a401-51dc-a85d-33cf648b98d2-attr-6-type" class="er entityLabel">float</text><rect height="22" width="72.72354125976562" y="134" x="52.06849670410156" class="er attributeBoxEven"/><text style="dominant-baseline: middle; font-size: 10.2px;" transform="translate(57.06849670410156,145)" y="0" x="0" id="text-entity-ORDERDB-0d7e96e6-a401-51dc-a85d-33cf648b98d2-attr-6-name" class="er entityLabel">total_amount</text><rect height="22" width="22.68768310546875" y="134" x="124.79203796386719" class="er attributeBoxEven"/><text style="dominant-baseline: middle; font-size: 10.2px;" transform="translate(129.7920379638672,145)" y="0" x="0" id="text-entity-ORDERDB-0d7e96e6-a401-51dc-a85d-33cf648b98d2-attr-6-key" class="er entityLabel"/></g><g transform="translate(20,298 )" id="entity-RESTAURANTDB-601552fd-5ac2-59f7-bb27-fa26a024d5cd"><rect height="112" width="140.81976318359375" y="0" x="0" class="er entityBox"/><text style="dominant-baseline: middle; text-anchor: middle; font-size: 12px;" transform="translate(70.40988159179688,12)" y="0" x="0" id="text-entity-RESTAURANTDB-601552fd-5ac2-59f7-bb27-fa26a024d5cd" class="er entityLabel">RESTAURANT_DB</text><rect height="22" width="46.30113220214844" y="24" x="0" class="er attributeBoxOdd"/><text style="dominant-baseline: middle; font-size: 10.2px;" transform="translate(5,35)" y="0" x="0" id="text-entity-RESTAURANTDB-601552fd-5ac2-59f7-bb27-fa26a024d5cd-attr-1-type" class="er entityLabel">int</text><rect height="22" width="71.83094787597656" y="24" x="46.30113220214844" class="er attributeBoxOdd"/><text style="dominant-baseline: middle; font-size: 10.2px;" transform="translate(51.30113220214844,35)" y="0" x="0" id="text-entity-RESTAURANTDB-601552fd-5ac2-59f7-bb27-fa26a024d5cd-attr-1-name" class="er entityLabel">restaurant_id</text><rect height="22" width="22.68768310546875" y="24" x="118.132080078125" class="er attributeBoxOdd"/><text style="dominant-baseline: middle; font-size: 10.2px;" transform="translate(123.132080078125,35)" y="0" x="0" id="text-entity-RESTAURANTDB-601552fd-5ac2-59f7-bb27-fa26a024d5cd-attr-1-key" class="er entityLabel">PK</text><rect height="22" width="46.30113220214844" y="46" x="0" class="er attributeBoxEven"/><text style="dominant-baseline: middle; font-size: 10.2px;" transform="translate(5,57)" y="0" x="0" id="text-entity-RESTAURANTDB-601552fd-5ac2-59f7-bb27-fa26a024d5cd-attr-2-type" class="er entityLabel">varchar</text><rect height="22" width="71.83094787597656" y="46" x="46.30113220214844" class="er attributeBoxEven"/><text style="dominant-baseline: middle; font-size: 10.2px;" transform="translate(51.30113220214844,57)" y="0" x="0" id="text-entity-RESTAURANTDB-601552fd-5ac2-59f7-bb27-fa26a024d5cd-attr-2-name" class="er entityLabel">name</text><rect height="22" width="22.68768310546875" y="46" x="118.132080078125" class="er attributeBoxEven"/><text style="dominant-baseline: middle; font-size: 10.2px;" transform="translate(123.132080078125,57)" y="0" x="0" id="text-entity-RESTAURANTDB-601552fd-5ac2-59f7-bb27-fa26a024d5cd-attr-2-key" class="er entityLabel"/><rect height="22" width="46.30113220214844" y="68" x="0" class="er attributeBoxOdd"/><text style="dominant-baseline: middle; font-size: 10.2px;" transform="translate(5,79)" y="0" x="0" id="text-entity-RESTAURANTDB-601552fd-5ac2-59f7-bb27-fa26a024d5cd-attr-3-type" class="er entityLabel">varchar</text><rect height="22" width="71.83094787597656" y="68" x="46.30113220214844" class="er attributeBoxOdd"/><text style="dominant-baseline: middle; font-size: 10.2px;" transform="translate(51.30113220214844,79)" y="0" x="0" id="text-entity-RESTAURANTDB-601552fd-5ac2-59f7-bb27-fa26a024d5cd-attr-3-name" class="er entityLabel">city_name</text><rect height="22" width="22.68768310546875" y="68" x="118.132080078125" class="er attributeBoxOdd"/><text style="dominant-baseline: middle; font-size: 10.2px;" transform="translate(123.132080078125,79)" y="0" x="0" id="text-entity-RESTAURANTDB-601552fd-5ac2-59f7-bb27-fa26a024d5cd-attr-3-key" class="er entityLabel"/><rect height="22" width="46.30113220214844" y="90" x="0" class="er attributeBoxEven"/><text style="dominant-baseline: middle; font-size: 10.2px;" transform="translate(5,101)" y="0" x="0" id="text-entity-RESTAURANTDB-601552fd-5ac2-59f7-bb27-fa26a024d5cd-attr-4-type" class="er entityLabel">varchar</text><rect height="22" width="71.83094787597656" y="90" x="46.30113220214844" class="er attributeBoxEven"/><text style="dominant-baseline: middle; font-size: 10.2px;" transform="translate(51.30113220214844,101)" y="0" x="0" id="text-entity-RESTAURANTDB-601552fd-5ac2-59f7-bb27-fa26a024d5cd-attr-4-name" class="er entityLabel">cuisine_type</text><rect height="22" width="22.68768310546875" y="90" x="118.132080078125" class="er attributeBoxEven"/><text style="dominant-baseline: middle; font-size: 10.2px;" transform="translate(123.132080078125,101)" y="0" x="0" id="text-entity-RESTAURANTDB-601552fd-5ac2-59f7-bb27-fa26a024d5cd-attr-4-key" class="er entityLabel"/></g><g transform="translate(260.81976318359375,276 )" id="entity-DELIVERYDB-27ed7809-3aac-5223-b199-cfcd6f1b0656"><rect height="156" width="148.24066162109375" y="0" x="0" class="er entityBox"/><text style="dominant-baseline: middle; text-anchor: middle; font-size: 12px;" transform="translate(74.12033081054688,12)" y="0" x="0" id="text-entity-DELIVERYDB-27ed7809-3aac-5223-b199-cfcd6f1b0656" class="er entityLabel">DELIVERY_DB</text><rect height="22" width="52.06849670410156" y="24" x="0" class="er attributeBoxOdd"/><text style="dominant-baseline: middle; font-size: 10.2px;" transform="translate(5,35)" y="0" x="0" id="text-entity-DELIVERYDB-27ed7809-3aac-5223-b199-cfcd6f1b0656-attr-1-type" class="er entityLabel">int</text><rect height="22" width="73.48448181152344" y="24" x="52.06849670410156" class="er attributeBoxOdd"/><text style="dominant-baseline: middle; font-size: 10.2px;" transform="translate(57.06849670410156,35)" y="0" x="0" id="text-entity-DELIVERYDB-27ed7809-3aac-5223-b199-cfcd6f1b0656-attr-1-name" class="er entityLabel">delivery_id</text><rect height="22" width="22.68768310546875" y="24" x="125.552978515625" class="er attributeBoxOdd"/><text style="dominant-baseline: middle; font-size: 10.2px;" transform="translate(130.552978515625,35)" y="0" x="0" id="text-entity-DELIVERYDB-27ed7809-3aac-5223-b199-cfcd6f1b0656-attr-1-key" class="er entityLabel">PK</text><rect height="22" width="52.06849670410156" y="46" x="0" class="er attributeBoxEven"/><text style="dominant-baseline: middle; font-size: 10.2px;" transform="translate(5,57)" y="0" x="0" id="text-entity-DELIVERYDB-27ed7809-3aac-5223-b199-cfcd6f1b0656-attr-2-type" class="er entityLabel">int</text><rect height="22" width="73.48448181152344" y="46" x="52.06849670410156" class="er attributeBoxEven"/><text style="dominant-baseline: middle; font-size: 10.2px;" transform="translate(57.06849670410156,57)" y="0" x="0" id="text-entity-DELIVERYDB-27ed7809-3aac-5223-b199-cfcd6f1b0656-attr-2-name" class="er entityLabel">order_id</text><rect height="22" width="22.68768310546875" y="46" x="125.552978515625" class="er attributeBoxEven"/><text style="dominant-baseline: middle; font-size: 10.2px;" transform="translate(130.552978515625,57)" y="0" x="0" id="text-entity-DELIVERYDB-27ed7809-3aac-5223-b199-cfcd6f1b0656-attr-2-key" class="er entityLabel">FK</text><rect height="22" width="52.06849670410156" y="68" x="0" class="er attributeBoxOdd"/><text style="dominant-baseline: middle; font-size: 10.2px;" transform="translate(5,79)" y="0" x="0" id="text-entity-DELIVERYDB-27ed7809-3aac-5223-b199-cfcd6f1b0656-attr-3-type" class="er entityLabel">int</text><rect height="22" width="73.48448181152344" y="68" x="52.06849670410156" class="er attributeBoxOdd"/><text style="dominant-baseline: middle; font-size: 10.2px;" transform="translate(57.06849670410156,79)" y="0" x="0" id="text-entity-DELIVERYDB-27ed7809-3aac-5223-b199-cfcd6f1b0656-attr-3-name" class="er entityLabel">rider_id</text><rect height="22" width="22.68768310546875" y="68" x="125.552978515625" class="er attributeBoxOdd"/><text style="dominant-baseline: middle; font-size: 10.2px;" transform="translate(130.552978515625,79)" y="0" x="0" id="text-entity-DELIVERYDB-27ed7809-3aac-5223-b199-cfcd6f1b0656-attr-3-key" class="er entityLabel"/><rect height="22" width="52.06849670410156" y="90" x="0" class="er attributeBoxEven"/><text style="dominant-baseline: middle; font-size: 10.2px;" transform="translate(5,101)" y="0" x="0" id="text-entity-DELIVERYDB-27ed7809-3aac-5223-b199-cfcd6f1b0656-attr-4-type" class="er entityLabel">geo</text><rect height="22" width="73.48448181152344" y="90" x="52.06849670410156" class="er attributeBoxEven"/><text style="dominant-baseline: middle; font-size: 10.2px;" transform="translate(57.06849670410156,101)" y="0" x="0" id="text-entity-DELIVERYDB-27ed7809-3aac-5223-b199-cfcd6f1b0656-attr-4-name" class="er entityLabel">latitude</text><rect height="22" width="22.68768310546875" y="90" x="125.552978515625" class="er attributeBoxEven"/><text style="dominant-baseline: middle; font-size: 10.2px;" transform="translate(130.552978515625,101)" y="0" x="0" id="text-entity-DELIVERYDB-27ed7809-3aac-5223-b199-cfcd6f1b0656-attr-4-key" class="er entityLabel"/><rect height="22" width="52.06849670410156" y="112" x="0" class="er attributeBoxOdd"/><text style="dominant-baseline: middle; font-size: 10.2px;" transform="translate(5,123)" y="0" x="0" id="text-entity-DELIVERYDB-27ed7809-3aac-5223-b199-cfcd6f1b0656-attr-5-type" class="er entityLabel">geo</text><rect height="22" width="73.48448181152344" y="112" x="52.06849670410156" class="er attributeBoxOdd"/><text style="dominant-baseline: middle; font-size: 10.2px;" transform="translate(57.06849670410156,123)" y="0" x="0" id="text-entity-DELIVERYDB-27ed7809-3aac-5223-b199-cfcd6f1b0656-attr-5-name" class="er entityLabel">longitude</text><rect height="22" width="22.68768310546875" y="112" x="125.552978515625" class="er attributeBoxOdd"/><text style="dominant-baseline: middle; font-size: 10.2px;" transform="translate(130.552978515625,123)" y="0" x="0" id="text-entity-DELIVERYDB-27ed7809-3aac-5223-b199-cfcd6f1b0656-attr-5-key" class="er entityLabel"/><rect height="22" width="52.06849670410156" y="134" x="0" class="er attributeBoxEven"/><text style="dominant-baseline: middle; font-size: 10.2px;" transform="translate(5,145)" y="0" x="0" id="text-entity-DELIVERYDB-27ed7809-3aac-5223-b199-cfcd6f1b0656-attr-6-type" class="er entityLabel">datetime</text><rect height="22" width="73.48448181152344" y="134" x="52.06849670410156" class="er attributeBoxEven"/><text style="dominant-baseline: middle; font-size: 10.2px;" transform="translate(57.06849670410156,145)" y="0" x="0" id="text-entity-DELIVERYDB-27ed7809-3aac-5223-b199-cfcd6f1b0656-attr-6-name" class="er entityLabel">delivery_time</text><rect height="22" width="22.68768310546875" y="134" x="125.552978515625" class="er attributeBoxEven"/><text style="dominant-baseline: middle; font-size: 10.2px;" transform="translate(130.552978515625,145)" y="0" x="0" id="text-entity-DELIVERYDB-27ed7809-3aac-5223-b199-cfcd6f1b0656-attr-6-key" class="er entityLabel"/></g><g transform="translate(509.0604248046875,287 )" id="entity-PAYMENTDB-b8b1b0e3-3abb-5ecd-bef3-41013cf1b071"><rect height="134" width="132.96560668945312" y="0" x="0" class="er entityBox"/><text style="dominant-baseline: middle; text-anchor: middle; font-size: 12px;" transform="translate(66.48280334472656,12)" y="0" x="0" id="text-entity-PAYMENTDB-b8b1b0e3-3abb-5ecd-bef3-41013cf1b071" class="er entityLabel">PAYMENT_DB</text><rect height="22" width="46.30113220214844" y="24" x="0" class="er attributeBoxOdd"/><text style="dominant-baseline: middle; font-size: 10.2px;" transform="translate(5,35)" y="0" x="0" id="text-entity-PAYMENTDB-b8b1b0e3-3abb-5ecd-bef3-41013cf1b071-attr-1-type" class="er entityLabel">int</text><rect height="22" width="63.97679138183594" y="24" x="46.30113220214844" class="er attributeBoxOdd"/><text style="dominant-baseline: middle; font-size: 10.2px;" transform="translate(51.30113220214844,35)" y="0" x="0" id="text-entity-PAYMENTDB-b8b1b0e3-3abb-5ecd-bef3-41013cf1b071-attr-1-name" class="er entityLabel">payment_id</text><rect height="22" width="22.68768310546875" y="24" x="110.27792358398438" class="er attributeBoxOdd"/><text style="dominant-baseline: middle; font-size: 10.2px;" transform="translate(115.27792358398438,35)" y="0" x="0" id="text-entity-PAYMENTDB-b8b1b0e3-3abb-5ecd-bef3-41013cf1b071-attr-1-key" class="er entityLabel">PK</text><rect height="22" width="46.30113220214844" y="46" x="0" class="er attributeBoxEven"/><text style="dominant-baseline: middle; font-size: 10.2px;" transform="translate(5,57)" y="0" x="0" id="text-entity-PAYMENTDB-b8b1b0e3-3abb-5ecd-bef3-41013cf1b071-attr-2-type" class="er entityLabel">int</text><rect height="22" width="63.97679138183594" y="46" x="46.30113220214844" class="er attributeBoxEven"/><text style="dominant-baseline: middle; font-size: 10.2px;" transform="translate(51.30113220214844,57)" y="0" x="0" id="text-entity-PAYMENTDB-b8b1b0e3-3abb-5ecd-bef3-41013cf1b071-attr-2-name" class="er entityLabel">order_id</text><rect height="22" width="22.68768310546875" y="46" x="110.27792358398438" class="er attributeBoxEven"/><text style="dominant-baseline: middle; font-size: 10.2px;" transform="translate(115.27792358398438,57)" y="0" x="0" id="text-entity-PAYMENTDB-b8b1b0e3-3abb-5ecd-bef3-41013cf1b071-attr-2-key" class="er entityLabel">FK</text><rect height="22" width="46.30113220214844" y="68" x="0" class="er attributeBoxOdd"/><text style="dominant-baseline: middle; font-size: 10.2px;" transform="translate(5,79)" y="0" x="0" id="text-entity-PAYMENTDB-b8b1b0e3-3abb-5ecd-bef3-41013cf1b071-attr-3-type" class="er entityLabel">int</text><rect height="22" width="63.97679138183594" y="68" x="46.30113220214844" class="er attributeBoxOdd"/><text style="dominant-baseline: middle; font-size: 10.2px;" transform="translate(51.30113220214844,79)" y="0" x="0" id="text-entity-PAYMENTDB-b8b1b0e3-3abb-5ecd-bef3-41013cf1b071-attr-3-name" class="er entityLabel">user_id</text><rect height="22" width="22.68768310546875" y="68" x="110.27792358398438" class="er attributeBoxOdd"/><text style="dominant-baseline: middle; font-size: 10.2px;" transform="translate(115.27792358398438,79)" y="0" x="0" id="text-entity-PAYMENTDB-b8b1b0e3-3abb-5ecd-bef3-41013cf1b071-attr-3-key" class="er entityLabel">FK</text><rect height="22" width="46.30113220214844" y="90" x="0" class="er attributeBoxEven"/><text style="dominant-baseline: middle; font-size: 10.2px;" transform="translate(5,101)" y="0" x="0" id="text-entity-PAYMENTDB-b8b1b0e3-3abb-5ecd-bef3-41013cf1b071-attr-4-type" class="er entityLabel">float</text><rect height="22" width="63.97679138183594" y="90" x="46.30113220214844" class="er attributeBoxEven"/><text style="dominant-baseline: middle; font-size: 10.2px;" transform="translate(51.30113220214844,101)" y="0" x="0" id="text-entity-PAYMENTDB-b8b1b0e3-3abb-5ecd-bef3-41013cf1b071-attr-4-name" class="er entityLabel">amount</text><rect height="22" width="22.68768310546875" y="90" x="110.27792358398438" class="er attributeBoxEven"/><text style="dominant-baseline: middle; font-size: 10.2px;" transform="translate(115.27792358398438,101)" y="0" x="0" id="text-entity-PAYMENTDB-b8b1b0e3-3abb-5ecd-bef3-41013cf1b071-attr-4-key" class="er entityLabel"/><rect height="22" width="46.30113220214844" y="112" x="0" class="er attributeBoxOdd"/><text style="dominant-baseline: middle; font-size: 10.2px;" transform="translate(5,123)" y="0" x="0" id="text-entity-PAYMENTDB-b8b1b0e3-3abb-5ecd-bef3-41013cf1b071-attr-5-type" class="er entityLabel">varchar</text><rect height="22" width="63.97679138183594" y="112" x="46.30113220214844" class="er attributeBoxOdd"/><text style="dominant-baseline: middle; font-size: 10.2px;" transform="translate(51.30113220214844,123)" y="0" x="0" id="text-entity-PAYMENTDB-b8b1b0e3-3abb-5ecd-bef3-41013cf1b071-attr-5-name" class="er entityLabel">status</text><rect height="22" width="22.68768310546875" y="112" x="110.27792358398438" class="er attributeBoxOdd"/><text style="dominant-baseline: middle; font-size: 10.2px;" transform="translate(115.27792358398438,123)" y="0" x="0" id="text-entity-PAYMENTDB-b8b1b0e3-3abb-5ecd-bef3-41013cf1b071-attr-5-key" class="er entityLabel"/></g><rect height="14" width="64.65625" y="190.6693115234375" x="119.692626953125" class="er relationshipLabelBox"/><text style="text-anchor: middle; dominant-baseline: middle; font-size: 12px;" y="197.6693115234375" x="152.020751953125" id="rel1" class="er relationshipLabel">Orders from</text><rect height="14" width="84.412109375" y="219" x="292.73394775390625" class="er relationshipLabelBox"/><text style="text-anchor: middle; dominant-baseline: middle; font-size: 12px;" y="226" x="334.94000244140625" id="rel2" class="er relationshipLabel">Delivery Details</text><rect height="14" width="116.0234375" y="188.2088165283203" x="454.11273193359375" class="er relationshipLabelBox"/><text style="text-anchor: middle; dominant-baseline: middle; font-size: 12px;" y="195.2088165283203" x="512.1244506835938" id="rel3" class="er relationshipLabel">Payment Transactions</text></svg>